<?xml version="1.0" encoding="UTF-8"?>
<svg width="850px" height="849px" viewBox="0 0 850 849" version="1.1" xmlns="http://www.w3.org/2000/svg" xmlns:xlink="http://www.w3.org/1999/xlink">
    <!-- Generator: Sketch 52.5 (67469) - http://www.bohemiancoding.com/sketch -->
    <title>Artboard Copy</title>
    <desc>Created with Sketch.</desc>
    <defs>
        <linearGradient x1="10.8240392%" y1="10.5362736%" x2="76.6043993%" y2="112.242347%" id="linearGradient-1">
            <stop stop-color="#888EDC" offset="0%"></stop>
            <stop stop-color="#0095F3" offset="100%"></stop>
        </linearGradient>
        <linearGradient x1="113.17097%" y1="-35.2454063%" x2="131.471864%" y2="169.334707%" id="linearGradient-2">
            <stop stop-color="#888EDC" offset="0%"></stop>
            <stop stop-color="#0095F3" offset="100%"></stop>
        </linearGradient>
        <linearGradient x1="32.230901%" y1="0%" x2="83.5108304%" y2="128.658473%" id="linearGradient-3">
            <stop stop-color="#888EDC" offset="0%"></stop>
            <stop stop-color="#0095F3" offset="100%"></stop>
        </linearGradient>
        <linearGradient x1="-67.0768426%" y1="106.228933%" x2="68.3480012%" y2="0%" id="linearGradient-4">
            <stop stop-color="#888EDC" offset="0%"></stop>
            <stop stop-color="#0095F3" offset="100%"></stop>
        </linearGradient>
        <linearGradient x1="125.567164%" y1="34.7131086%" x2="96.3442419%" y2="68.7500801%" id="linearGradient-5">
            <stop stop-color="#888EDC" offset="0%"></stop>
            <stop stop-color="#0095F3" offset="100%"></stop>
        </linearGradient>
        <linearGradient x1="-45.8306537%" y1="189.445716%" x2="50%" y2="32.8222508%" id="linearGradient-6">
            <stop stop-color="#ADB3FF" offset="0%"></stop>
            <stop stop-color="#0095F3" offset="100%"></stop>
        </linearGradient>
        <linearGradient x1="17.2300313%" y1="13.0425788%" x2="94.0514053%" y2="133.163979%" id="linearGradient-7">
            <stop stop-color="#FDFF9A" offset="0%"></stop>
            <stop stop-color="#FE9BC9" offset="100%"></stop>
        </linearGradient>
        <linearGradient x1="121.879329%" y1="143.980262%" x2="50%" y2="-19.9243977%" id="linearGradient-8">
            <stop stop-color="#FDFF9A" offset="0%"></stop>
            <stop stop-color="#FE9BC9" offset="100%"></stop>
        </linearGradient>
        <linearGradient x1="50%" y1="0%" x2="-41.3495244%" y2="-403.955444%" id="linearGradient-9">
            <stop stop-color="#FFC5AE" offset="0%"></stop>
            <stop stop-color="#FE9BC9" offset="100%"></stop>
        </linearGradient>
        <linearGradient x1="-397.352742%" y1="-40.7590166%" x2="220.556229%" y2="192.284532%" id="linearGradient-10">
            <stop stop-color="#FDFF9A" offset="0%"></stop>
            <stop stop-color="#FE9BC9" offset="100%"></stop>
        </linearGradient>
        <linearGradient x1="87.0507224%" y1="60.1362152%" x2="-96.6593751%" y2="-35.8305247%" id="linearGradient-11">
            <stop stop-color="#FFDE9C" offset="0%"></stop>
            <stop stop-color="#FE9BC9" offset="100%"></stop>
        </linearGradient>
        <linearGradient x1="-71.5646929%" y1="17.5160292%" x2="-134.092346%" y2="-69.4659564%" id="linearGradient-12">
            <stop stop-color="#FFDE9C" offset="0%"></stop>
            <stop stop-color="#FE9BC9" offset="100%"></stop>
        </linearGradient>
        <linearGradient x1="69.525003%" y1="39.9191597%" x2="-9.61737562%" y2="75.2205749%" id="linearGradient-13">
            <stop stop-color="#82F9A3" offset="0%"></stop>
            <stop stop-color="#78CEE6" offset="100%"></stop>
        </linearGradient>
        <linearGradient x1="4.60175625%" y1="-99.4579746%" x2="4.60175625%" y2="100%" id="linearGradient-14">
            <stop stop-color="#82F9A3" offset="0%"></stop>
            <stop stop-color="#78CEE6" offset="100%"></stop>
        </linearGradient>
        <linearGradient x1="-57.841779%" y1="50%" x2="0%" y2="50%" id="linearGradient-15">
            <stop stop-color="#82F9A3" offset="0%"></stop>
            <stop stop-color="#78CEE6" offset="100%"></stop>
        </linearGradient>
        <linearGradient x1="94.9825978%" y1="44.7147143%" x2="-185.760797%" y2="113.097655%" id="linearGradient-16">
            <stop stop-color="#82F9A3" offset="0%"></stop>
            <stop stop-color="#78CEE6" offset="100%"></stop>
        </linearGradient>
        <linearGradient x1="94.9825978%" y1="44.7147143%" x2="4.60175625%" y2="50%" id="linearGradient-17">
            <stop stop-color="#82F9A3" offset="0%"></stop>
            <stop stop-color="#78CEE6" offset="100%"></stop>
        </linearGradient>
        <linearGradient x1="189.591944%" y1="-24.2147092%" x2="215.435042%" y2="-98.2496757%" id="linearGradient-18">
            <stop stop-color="#8EFFAD" offset="0%"></stop>
            <stop stop-color="#78CEE6" offset="100%"></stop>
        </linearGradient>
    </defs>
    <g id="Artboard-Copy" stroke="none" stroke-width="1" fill="none" fill-rule="evenodd">
        <g id="Group-2" transform="translate(121.000000, 114.000000)">
            <g id="digg-copy" transform="translate(233.000000, 0.000000)">
                <path d="M313.115,125.883 L106.253,6.45 C93.187,-1.094 81.348,-1.795 72.799,3.173 L14.411,37.104 C14.438,37.088 14.468,37.076 14.496,37.059 C6.008,41.943 0.74,52.388 0.697,67.26 L0.023,304.962 C-0.062,334.797 20.921,371.14 46.885,386.13 L253.748,505.562 C267.189,513.321 279.321,513.824 287.918,508.38 C287.679,508.531 287.446,508.694 287.2,508.838 L345.586,474.908 C354.026,470.003 359.258,459.575 359.301,444.753 L359.975,207.051 C360.062,177.209 339.079,140.873 313.115,125.883 Z" id="Path" fill="url(#linearGradient-1)"></path>
                <g id="Group" transform="translate(14.000000, 0.000000)">
                    <path d="M331.588,474.907 L273.202,508.837 C281.642,503.932 286.876,493.504 286.917,478.682 L345.303,444.752 C345.261,459.573 340.027,470.002 331.588,474.907 Z" id="Path" fill="url(#linearGradient-2)"></path>
                    <g id="Path">
                        <path d="M0.411,37.104 L58.797,3.174 C67.346,-1.794 79.185,-1.093 92.251,6.451 L33.865,40.381 C20.799,32.837 8.961,32.135 0.411,37.104 Z" fill="url(#linearGradient-3)"></path>
                        <polygon fill="url(#linearGradient-4)" opacity="0.935407366" points="287.591 240.981 345.977 207.05 345.303 444.752 286.917 478.682"></polygon>
                    </g>
                    <polygon id="Path" fill="url(#linearGradient-5)" points="33.866 40.381 92.253 6.45 299.115 125.883 240.729 159.813"></polygon>
                    <path d="M240.729,159.813 L299.115,125.883 C325.08,140.873 346.061,177.21 345.977,207.051 L287.591,240.981 C287.676,211.14 266.693,174.804 240.729,159.813 Z" id="Path" fill="url(#linearGradient-6)"></path>
                </g>
            </g>
            <g id="digg" transform="translate(118.000000, 64.000000)">
                <path d="M313.115,125.883 L106.253,6.45 C93.187,-1.094 81.348,-1.795 72.799,3.173 L14.411,37.104 C14.438,37.088 14.468,37.076 14.496,37.059 C6.008,41.943 0.74,52.388 0.697,67.26 L0.023,304.962 C-0.062,334.797 20.921,371.14 46.885,386.13 L253.748,505.562 C267.189,513.321 279.321,513.824 287.918,508.38 C287.679,508.531 287.446,508.694 287.2,508.838 L345.586,474.908 C354.026,470.003 359.258,459.575 359.301,444.753 L359.975,207.051 C360.062,177.209 339.079,140.873 313.115,125.883 Z" id="Path" fill="url(#linearGradient-7)"></path>
                <g id="Group" transform="translate(14.000000, 0.000000)">
                    <path d="M331.588,474.907 L273.202,508.837 C281.642,503.932 286.876,493.504 286.917,478.682 L345.303,444.752 C345.261,459.573 340.027,470.002 331.588,474.907 Z" id="Path" fill="url(#linearGradient-8)"></path>
                    <g id="Path">
                        <path d="M0.411,37.104 L58.797,3.174 C67.346,-1.794 79.185,-1.093 92.251,6.451 L33.865,40.381 C20.799,32.837 8.961,32.135 0.411,37.104 Z" fill="url(#linearGradient-9)"></path>
                        <polygon fill="url(#linearGradient-10)" points="287.591 240.981 345.977 207.05 345.303 444.752 286.917 478.682"></polygon>
                    </g>
                    <polygon id="Path" fill="url(#linearGradient-11)" points="33.866 40.381 92.253 6.45 299.115 125.883 240.729 159.813"></polygon>
                    <path d="M240.729,159.813 L299.115,125.883 C325.08,140.873 346.061,177.21 345.977,207.051 L287.591,240.981 C287.676,211.14 266.693,174.804 240.729,159.813 Z" id="Path" fill="url(#linearGradient-12)"></path>
                </g>
            </g>
            <g id="digg" transform="translate(0.000000, 135.000000)">
                <path d="M313.115,125.883 L106.253,6.45 C93.187,-1.094 81.348,-1.795 72.799,3.173 L14.411,37.104 C14.438,37.088 14.468,37.076 14.496,37.059 C6.008,41.943 0.74,52.388 0.697,67.26 L0.023,304.962 C-0.062,334.797 20.921,371.14 46.885,386.13 L253.748,505.562 C267.189,513.321 279.321,513.824 287.918,508.38 C287.679,508.531 287.446,508.694 287.2,508.838 L345.586,474.908 C354.026,470.003 359.258,459.575 359.301,444.753 L359.975,207.051 C360.062,177.209 339.079,140.873 313.115,125.883 Z" id="Path" fill="url(#linearGradient-13)"></path>
                <g id="Group" transform="translate(14.000000, 0.000000)">
                    <path d="M331.588,474.907 L273.202,508.837 C281.642,503.932 286.876,493.504 286.917,478.682 L345.303,444.752 C345.261,459.573 340.027,470.002 331.588,474.907 Z" id="Path" fill="url(#linearGradient-14)"></path>
                    <g id="Path">
                        <path d="M0.411,37.104 L58.797,3.174 C67.346,-1.794 79.185,-1.093 92.251,6.451 L33.865,40.381 C20.799,32.837 8.961,32.135 0.411,37.104 Z" fill="url(#linearGradient-15)"></path>
                        <polygon fill="url(#linearGradient-16)" points="287.591 240.981 345.977 207.05 345.303 444.752 286.917 478.682"></polygon>
                    </g>
                    <polygon id="Path" fill="url(#linearGradient-17)" points="33.866 40.381 92.253 6.45 299.115 125.883 240.729 159.813"></polygon>
                    <path d="M240.729,159.813 L299.115,125.883 C325.08,140.873 346.061,177.21 345.977,207.051 L287.591,240.981 C287.676,211.14 266.693,174.804 240.729,159.813 Z" id="Path" fill="url(#linearGradient-18)"></path>
                </g>
            </g>
        </g>
    </g>
</svg>