<?xml version="1.0" encoding="UTF-8"?>
<svg width="20px" height="20px" viewBox="0 0 26 23" version="1.1" xmlns="http://www.w3.org/2000/svg" xmlns:xlink="http://www.w3.org/1999/xlink">
    <g id="Page-1" stroke="none" stroke-width="1" fill="none" fill-rule="evenodd">
        <g id="paxport-logo-—-копия" fill="#00CCCF">
            <path d="M19.5745,0 L2.93577,0 C2.58844,0 2.30726,0.279486 2.30726,0.624732 L2.30726,13.5304 L0.322521,16.4896 C-0.107507,17.1308 -0.107507,17.9528 0.322521,18.594 L2.72075,22.1615 C3.06808,22.6876 3.6635,23 4.30855,23 L14.2984,23 C14.6457,23 14.9269,22.7205 14.9269,22.3753 L14.9269,15.3059 L19.5911,15.3059 C20.4842,15.3059 21.3277,14.862 21.8239,14.1222 L25.1649,9.14082 C25.7603,8.2366 25.7603,7.06934 25.1649,6.18156 L21.8239,1.20014 C21.3112,0.460329 20.4842,0 19.5745,0 Z M14.9104,12.0836 L5.53247,12.0836 L5.53247,3.2223 L19.2934,3.2223 L22.2705,7.66119 L19.2934,12.1001 L14.9104,12.1001 L14.9104,12.0836 Z M11.6852,19.7941 L5.00321,19.7941 L3.49811,17.5418 L5.00321,15.2895 L11.6852,15.2895 L11.6852,19.7941 Z" id="Shape" fill-rule="nonzero"></path>
            <path d="M15.241,6.24728 L8.42676,6.24728 L8.42676,8.99281 L15.241,8.99281 L17.11,8.99281 C17.5235,8.5818 17.937,8.17079 18.367,7.61182 C17.9535,7.05285 17.54,6.65828 17.11,6.23083 L15.241,6.23083 L15.241,6.24728 Z" id="Path"></path>
        </g>
    </g>
</svg>
